<svg xmlns="http://www.w3.org/2000/svg" xmlns:xlink="http://www.w3.org/1999/xlink" width="453" height="294"><defs><path id="a" d="M0 0h8.85v11.659H0z"/><path id="c" d="M0 0h8.85v11.659H0z"/><path id="e" d="M0 0h8.774v11.559H0z"/><path id="g" d="M0 0h8.774v11.559H0z"/><path id="i" d="M0 0h11.002v14.495H0z"/></defs><g fill="none" fill-rule="evenodd"><g transform="translate(43 71)"><mask id="b" fill="#fff"><use xlink:href="#a"/></mask><path fill="#FFF" d="M4.425 7.003a2.578 2.578 0 110-5.156 2.578 2.578 0 010 5.156m0-7.003A4.425 4.425 0 000 4.425c0 3.371 4.425 7.234 4.425 7.234S8.85 7.796 8.85 4.425A4.425 4.425 0 004.425 0" mask="url(#b)"/></g><g transform="translate(38 25)"><mask id="d" fill="#fff"><use xlink:href="#c"/></mask><path fill="#FFF" d="M4.425 7.003a2.578 2.578 0 110-5.156 2.578 2.578 0 010 5.156m0-7.003A4.425 4.425 0 000 4.425c0 3.371 4.425 7.234 4.425 7.234S8.85 7.796 8.85 4.425A4.425 4.425 0 004.425 0" mask="url(#d)"/></g><g transform="translate(232 127)"><mask id="f" fill="#fff"><use xlink:href="#e"/></mask><path fill="#FFF" d="M4.387 6.943a2.556 2.556 0 110-5.112 2.556 2.556 0 010 5.112m0-6.943A4.387 4.387 0 000 4.387c0 3.342 4.387 7.172 4.387 7.172s4.387-3.83 4.387-7.172A4.387 4.387 0 004.387 0" mask="url(#f)"/></g><g transform="translate(311 164)"><mask id="h" fill="#fff"><use xlink:href="#g"/></mask><path fill="#FFF" d="M4.387 6.943a2.556 2.556 0 110-5.112 2.556 2.556 0 010 5.112m0-6.943A4.387 4.387 0 000 4.387c0 3.342 4.387 7.172 4.387 7.172s4.387-3.83 4.387-7.172A4.387 4.387 0 004.387 0" mask="url(#h)"/></g><g transform="translate(37 61)"><mask id="j" fill="#fff"><use xlink:href="#i"/></mask><path fill="#FFB500" d="M5.501 8.706a3.205 3.205 0 110-6.41 3.205 3.205 0 010 6.41m0-8.706A5.501 5.501 0 000 5.5c0 4.192 5.501 8.995 5.501 8.995s5.5-4.803 5.5-8.994A5.501 5.501 0 005.502 0" mask="url(#j)"/></g></g></svg>